<svg height="464pt" viewBox="0 0 464.0416 464" width="464pt" xmlns="http://www.w3.org/2000/svg"><path d="m277.519531 400.019531h-277.519531v32c.0234375 17.664063 14.335938 31.980469 32 32h336c-1.097656.03125-2.191406-.023437-3.28125-.160156-39.449219-1.257813-74.082031-26.609375-87.199219-63.839844zm0 0" fill="#c6c5ca"/><path d="m369.519531 464.019531c.242188.015625.488281-.011719.71875-.078125-.714843.066406-1.4375.09375-2.160156.078125zm0 0" fill="#e0e0e2"/><path d="m80 .0195312c-17.671875 0-32 14.3281248-32 31.9999998v368h229.519531c-3.675781-10.265625-5.542969-21.09375-5.519531-32 0-53.019531 42.980469-96 96-96 10.90625-.019531 21.730469 1.847657 32 5.519531v-245.519531c-.003906-17.476562 14.019531-31.722656 31.496094-31.9999998zm0 0" fill="#e0e0e2"/><path d="m432 .0195312c-.167969 0-.335938 0-.503906 0h.503906c-17.65625.046875-31.957031 14.3476568-32 31.9999998v32h64v-32c0-17.671875-14.328125-31.9999998-32-31.9999998zm0 0" fill="#acabb1"/><path d="m400 32.019531c.042969-17.652343 14.34375-31.9531248 32-31.9999998h-.503906c-17.476563.2773438-31.5 14.5234378-31.496094 31.9999998zm0 0" fill="#e0e0e2"/><path d="m440 304.421875c-10.832031-12.214844-24.597656-21.464844-40-26.882813-10.269531-3.671874-21.09375-5.539062-32-5.519531-53.019531 0-96 42.980469-96 96-.023438 10.90625 1.84375 21.734375 5.519531 32 13.117188 37.230469 47.75 62.582031 87.199219 63.839844 1.089844.136719 2.183594.191406 3.28125.160156h.078125c.722656.015625 1.445313-.011719 2.160156-.078125 37.339844-.855468 70.796875-23.289062 85.761719-57.511718 14.964844-34.21875 8.722656-74.011719-16-102.007813zm0 0" fill="#71d9b3"/><g fill="#acabb1"><path d="m352 200.019531h-256c-4.417969 0-8-3.582031-8-8s3.582031-8 8-8h256c4.417969 0 8 3.582031 8 8s-3.582031 8-8 8zm0 0"/><path d="m352 248.019531h-256c-4.417969 0-8-3.582031-8-8s3.582031-8 8-8h256c4.417969 0 8 3.582031 8 8s-3.582031 8-8 8zm0 0"/><path d="m256 296.019531h-160c-4.417969 0-8-3.582031-8-8s3.582031-8 8-8h160c4.417969 0 8 3.582031 8 8s-3.582031 8-8 8zm0 0"/><path d="m240 344.019531h-144c-4.417969 0-8-3.582031-8-8s3.582031-8 8-8h144c4.417969 0 8 3.582031 8 8s-3.582031 8-8 8zm0 0"/><path d="m352 152.019531h-256c-4.417969 0-8-3.582031-8-8s3.582031-8 8-8h256c4.417969 0 8 3.582031 8 8s-3.582031 8-8 8zm0 0"/><path d="m352 104.019531h-224c-4.417969 0-8-3.582031-8-8s3.582031-8 8-8h224c4.417969 0 8 3.582031 8 8s-3.582031 8-8 8zm0 0"/><path d="m352 56.019531h-184c-4.417969 0-8-3.582031-8-8s3.582031-8 8-8h184c4.417969 0 8 3.582031 8 8s-3.582031 8-8 8zm0 0"/></g><path d="m80 88.019531c-4.417969 0-8-3.582031-8-8v-32c0-13.253906 10.746094-24 24-24h32c4.417969 0 8 3.582031 8 8s-3.582031 8-8 8h-32c-4.417969 0-8 3.582031-8 8v32c0 4.417969-3.582031 8-8 8zm0 0" fill="#f1f2f2"/><path d="m432 360.019531h-56v-56c0-4.417969-3.582031-8-8-8s-8 3.582031-8 8v56h-56c-4.417969 0-8 3.582031-8 8s3.582031 8 8 8h56v56c0 4.417969 3.582031 8 8 8s8-3.582031 8-8v-56h56c4.417969 0 8-3.582031 8-8s-3.582031-8-8-8zm0 0" fill="#fff"/></svg>