<svg height="464pt" viewBox="-1 0 464 464.14053" width="464pt" xmlns="http://www.w3.org/2000/svg"><path d="m429.523438 64c0-8.835938-7.164063-16-16-16h-200l-59.734376-44.800781c-2.769531-2.078125-6.140624-3.199219-9.601562-3.199219h-98.664062c-8.835938 0-16 7.164062-16 16v96h400zm0 0" fill="#ffcd00"/><path d="m29.523438 112h400v32h-400zm0 0" fill="#e0e0e2"/><path d="m442.964844 144h-426.882813c-4.660156.011719-9.085937 2.046875-12.125 5.578125-3.042969 3.53125-4.398437 8.210937-3.714843 12.820313l43.203124 288c1.1875 7.828124 7.921876 13.613281 15.839844 13.601562h306.238282c-44.167969-.042969-82.609376-30.214844-93.140626-73.109375s9.5625-87.441406 48.691407-107.933594c39.128906-20.492187 87.1875-11.640625 116.449219 21.441407l21.28125-142c.683593-4.609376-.671876-9.289063-3.714844-12.820313-3.039063-3.53125-7.464844-5.566406-12.125-5.578125zm0 0" fill="#ffda44"/><path d="m437.523438 304.398438c-30.703126-34.859376-81.933594-42.792969-121.742188-18.855469-39.808594 23.941406-56.816406 72.914062-40.417969 116.378906 16.402344 43.460937 61.523438 68.988281 107.226563 60.660156 45.699218-8.328125 78.917968-48.128906 78.933594-94.582031.007812-23.414062-8.527344-46.027344-24-63.601562zm0 0" fill="#71d9b3"/><path d="m125.660156 440h-52.617187c-3.960938 0-7.324219-2.898438-7.910157-6.816406l-7.25-48.34375c-.660156-4.371094 2.34375-8.449219 6.710938-9.113282 4.371094-.660156 8.449219 2.34375 9.113281 6.714844l6.214844 41.558594h45.722656c4.417969 0 8 3.582031 8 8s-3.582031 8-8 8zm0 0" fill="#f1f2f2"/><path d="m429.523438 360h-56v-56c0-4.417969-3.582032-8-8-8-4.417969 0-8 3.582031-8 8v56h-56c-4.417969 0-8 3.582031-8 8s3.582031 8 8 8h56v56c0 4.417969 3.582031 8 8 8 4.417968 0 8-3.582031 8-8v-56h56c4.417968 0 8-3.582031 8-8s-3.582032-8-8-8zm0 0" fill="#fff"/></svg>