<svg height="464pt" viewBox="-64 0 464 464" width="464pt" xmlns="http://www.w3.org/2000/svg"><path d="m264 128c-8.835938 0-16-7.164062-16-16v-64h-216c-17.671875 0-32 14.328125-32 32v352c0 17.671875 14.328125 32 32 32h272c17.671875 0 32-14.328125 32-32v-304zm0 0" fill="#e0e0e2"/><path d="m264 128h72l-88-80v64c0 8.835938 7.164062 16 16 16zm0 0" fill="#c6c5ca"/><path d="m96 0h-16c-17.671875 0-32 14.328125-32 32v16h24v-16c0-4.417969 3.582031-8 8-8h16c4.417969 0 8 3.582031 8 8v96c0 4.417969-3.582031 8-8 8h-16c-4.417969 0-8-3.582031-8-8v-48h-24v48c0 17.671875 14.328125 32 32 32h16c17.671875 0 32-14.328125 32-32v-96c0-17.671875-14.328125-32-32-32zm0 0" fill="#71d2f6"/><g fill="#acabb1"><path d="m288 216h-176c-4.417969 0-8-3.582031-8-8s3.582031-8 8-8h176c4.417969 0 8 3.582031 8 8s-3.582031 8-8 8zm0 0"/><path d="m288 264h-240c-4.417969 0-8-3.582031-8-8s3.582031-8 8-8h240c4.417969 0 8 3.582031 8 8s-3.582031 8-8 8zm0 0"/><path d="m288 312h-240c-4.417969 0-8-3.582031-8-8s3.582031-8 8-8h240c4.417969 0 8 3.582031 8 8s-3.582031 8-8 8zm0 0"/><path d="m288 360h-240c-4.417969 0-8-3.582031-8-8s3.582031-8 8-8h240c4.417969 0 8 3.582031 8 8s-3.582031 8-8 8zm0 0"/><path d="m224 408h-176c-4.417969 0-8-3.582031-8-8s3.582031-8 8-8h176c4.417969 0 8 3.582031 8 8s-3.582031 8-8 8zm0 0"/></g><path d="m288 440h-16c-4.417969 0-8-3.582031-8-8s3.582031-8 8-8h16c4.417969 0 8-3.582031 8-8v-16c0-4.417969 3.582031-8 8-8s8 3.582031 8 8v16c0 13.253906-10.746094 24-24 24zm0 0" fill="#f1f2f2"/></svg>