<svg height="464pt" viewBox="-48 0 464 464" width="464pt" xmlns="http://www.w3.org/2000/svg"><path d="m0 400v8l.800781-.078125c-.550781-2.605469-.8203122-5.261719-.800781-7.921875zm0 0" fill="#e0e0e2"/><path d="m368 312v-264c0-26.507812-21.488281-48-48-48v360c26.511719 0 48-21.492188 48-48zm0 0" fill="#ffcd00"/><path d="m48 0c-26.507812 0-48 21.492188-48 48v352c-.03125-10.617188 4.171875-20.8125 11.679688-28.320312 7.511718-7.507813 17.703124-11.710938 28.320312-11.679688h232v-360zm0 0" fill="#ffcd00"/><path d="m.800781 407.921875c3.769531 18.65625 20.164063 32.074219 39.199219 32.078125h48v-40h-88c-.0195312 2.660156.25 5.316406.800781 7.921875zm0 0" fill="#c6c5ca"/><path d="m320 360h-280c-10.617188-.03125-20.808594 4.171875-28.320312 11.679688-7.507813 7.507812-11.710938 17.703124-11.679688 28.320312h320c26.511719 0 48-21.492188 48-48v-40c0 26.507812-21.488281 48-48 48zm0 0" fill="#d8d7da"/><path d="m320 400h-184v40h184c26.511719 0 48-21.492188 48-48v-40c0 26.507812-21.488281 48-48 48zm0 0" fill="#c6c5ca"/><path d="m88 400v64l24-24 24 24v-64zm0 0" fill="#ff9e85"/><path d="m272 0h48v360h-48zm0 0" fill="#71d9b3"/><path d="m48 336c-4.417969 0-8-3.582031-8-8v-264c0-13.253906 10.746094-24 24-24h48c4.417969 0 8 3.582031 8 8s-3.582031 8-8 8h-48c-4.417969 0-8 3.582031-8 8v264c0 4.417969-3.582031 8-8 8zm0 0" fill="#f1f2f2"/></svg>