<svg height="464pt" viewBox="-48 0 464 464.0401" width="464pt" xmlns="http://www.w3.org/2000/svg"><path d="m32.019531 48.039062h304c17.671875 0 32 14.328126 32 32v352c0 17.675782-14.328125 32-32 32h-304c-17.671875 0-31.9999998-14.324218-31.9999998-32v-352c0-17.671874 14.3281248-32 31.9999998-32zm0 0" fill="#27aae1"/><path d="m264.019531 32.039062v64h-160v-64h40.800781c3.785157-18.640624 20.175782-32.039062 39.199219-32.039062 19.023438 0 35.414063 13.398438 39.199219 32.039062zm0 0" fill="#ffcd00"/><path d="m264.019531 80.039062v16h-160v-16h-72v352h240v-48c0-8.835937 7.164063-16 16-16h48v-288zm0 0" fill="#e0e0e2"/><path d="m272.019531 384.039062v48l64-64h-48c-8.835937 0-16 7.164063-16 16zm0 0" fill="#c6c5ca"/><path d="m184.019531 56.039062c-8.835937 0-16-7.164062-16-16 0-8.835937 7.164063-16 16-16 8.835938 0 16 7.164063 16 16 0 8.835938-7.164062 16-16 16zm0-16" fill="#f1f2f2"/><g fill="#acabb1"><path d="m88.019531 176.039062h-8c-4.417969 0-8-3.582031-8-8 0-4.417968 3.582031-8 8-8h8c4.417969 0 8 3.582032 8 8 0 4.417969-3.582031 8-8 8zm0 0"/><path d="m288.019531 176.039062h-168c-4.417969 0-8-3.582031-8-8 0-4.417968 3.582031-8 8-8h168c4.417969 0 8 3.582032 8 8 0 4.417969-3.582031 8-8 8zm0 0"/><path d="m88.019531 224.039062h-8c-4.417969 0-8-3.582031-8-8 0-4.417968 3.582031-8 8-8h8c4.417969 0 8 3.582032 8 8 0 4.417969-3.582031 8-8 8zm0 0"/><path d="m288.019531 224.039062h-168c-4.417969 0-8-3.582031-8-8 0-4.417968 3.582031-8 8-8h168c4.417969 0 8 3.582032 8 8 0 4.417969-3.582031 8-8 8zm0 0"/><path d="m88.019531 272.039062h-8c-4.417969 0-8-3.582031-8-8 0-4.417968 3.582031-8 8-8h8c4.417969 0 8 3.582032 8 8 0 4.417969-3.582031 8-8 8zm0 0"/><path d="m288.019531 272.039062h-168c-4.417969 0-8-3.582031-8-8 0-4.417968 3.582031-8 8-8h168c4.417969 0 8 3.582032 8 8 0 4.417969-3.582031 8-8 8zm0 0"/><path d="m88.019531 320.039062h-8c-4.417969 0-8-3.582031-8-8 0-4.417968 3.582031-8 8-8h8c4.417969 0 8 3.582032 8 8 0 4.417969-3.582031 8-8 8zm0 0"/><path d="m288.019531 320.039062h-168c-4.417969 0-8-3.582031-8-8 0-4.417968 3.582031-8 8-8h168c4.417969 0 8 3.582032 8 8 0 4.417969-3.582031 8-8 8zm0 0"/><path d="m88.019531 368.039062h-8c-4.417969 0-8-3.582031-8-8 0-4.417968 3.582031-8 8-8h8c4.417969 0 8 3.582032 8 8 0 4.417969-3.582031 8-8 8zm0 0"/><path d="m248.019531 368.039062h-128c-4.417969 0-8-3.582031-8-8 0-4.417968 3.582031-8 8-8h128c4.417969 0 8 3.582032 8 8 0 4.417969-3.582031 8-8 8zm0 0"/></g></svg>