<svg height="480pt" viewBox="-8 0 480 480" width="480pt" xmlns="http://www.w3.org/2000/svg"><path d="m400 128v272c0 17.671875-14.328125 32-32 32s-32-14.328125-32-32v-32h-288v-240zm0 0" fill="#e0e0e2"/><path d="m432 48h-64c17.671875 0 32 14.328125 32 32v48h64v-48c0-17.671875-14.328125-32-32-32zm0 0" fill="#27aae1"/><path d="m400 400v48c0 17.671875-14.328125 32-32 32h64c17.671875 0 32-14.328125 32-32v-320h-64zm0 0" fill="#c6c5ca"/><path d="m400 448v-48c0 17.671875-14.328125 32-32 32h-320v16c0 17.671875 14.328125 32 32 32h288c17.671875 0 32-14.328125 32-32zm0 0" fill="#acabb1"/><path d="m368 48h-288c-17.671875 0-32 14.328125-32 32v48h352v-48c0-17.671875-14.328125-32-32-32zm0 0" fill="#71d2f6"/><path d="m345.359375 422.640625c-5.980469-6.019531-9.34375-14.15625-9.359375-22.640625v-32h-336v32c0 17.671875 14.328125 32 32 32h336c-8.484375-.015625-16.621094-3.378906-22.640625-9.359375zm0 0" fill="#c6c5ca"/><g fill="#71d9b3"><path d="m104 192h48v48h-48zm0 0"/><path d="m200 192h48v48h-48zm0 0"/><path d="m296 192h48v48h-48zm0 0"/><path d="m104 280h48v48h-48zm0 0"/><path d="m200 280h48v48h-48zm0 0"/><path d="m296 280h48v48h-48zm0 0"/></g><path d="m72 192c-4.417969 0-8-3.582031-8-8v-16c0-13.253906 10.746094-24 24-24h16c4.417969 0 8 3.582031 8 8s-3.582031 8-8 8h-16c-4.417969 0-8 3.582031-8 8v16c0 4.417969-3.582031 8-8 8zm0 0" fill="#f1f2f2"/><path d="m320 0c-26.507812 0-48 21.492188-48 48s21.492188 48 48 48c4.417969 0 8-3.582031 8-8s-3.582031-8-8-8c-17.671875 0-32-14.328125-32-32s14.328125-32 32-32 32 14.328125 32 32h16c-.027344-26.5-21.5-47.9726562-48-48zm0 0" fill="#fbb040"/><path d="m128 0c-26.507812 0-48 21.492188-48 48s21.492188 48 48 48c4.417969 0 8-3.582031 8-8s-3.582031-8-8-8c-17.671875 0-32-14.328125-32-32s14.328125-32 32-32 32 14.328125 32 32h16c-.027344-26.5-21.5-47.9726562-48-48zm0 0" fill="#fbb040"/><path d="m224 0c-26.507812 0-48 21.492188-48 48s21.492188 48 48 48c4.417969 0 8-3.582031 8-8s-3.582031-8-8-8c-17.671875 0-32-14.328125-32-32s14.328125-32 32-32 32 14.328125 32 32h16c-.027344-26.5-21.5-47.9726562-48-48zm0 0" fill="#fbb040"/></svg>