<svg height="464pt" viewBox="0 0 464 464.0012" width="464pt" xmlns="http://www.w3.org/2000/svg"><path d="m336 32v1.839844c-.074219-15.902344 10.898438-29.726563 26.402344-33.269532-15.261719 2.683594-26.390625 15.9375-26.402344 31.429688zm0 0" fill="#fbb040"/><path d="m336 33.839844v-1.839844c.011719-15.492188 11.140625-28.746094 26.402344-31.429688.886718-.175781 1.8125-.183593 2.726562-.28125.910156-.097656 1.886719-.289062 2.871094-.289062h-336c-17.671875 0-32 14.328125-32 32v32h336zm0 0" fill="#c6c5ca"/><path d="m432 432c-17.652344-.042969-31.957031-14.34375-32-32v-368c.019531-17.09375-13.402344-31.1875-30.480469-32-1.472656-.0117188-2.941406.0859375-4.398437.289062-.914063.089844-1.839844.121094-2.726563.28125-15.503906 3.546876-26.46875 17.371094-26.394531 33.269532v30.160156h-288v336c0 17.675781 14.328125 32 32 32zm0 0" fill="#e0e0e2"/><path d="m365.121094.289062c-.914063.097657-1.839844.105469-2.726563.28125.886719-.160156 1.8125-.191406 2.726563-.28125zm0 0" fill="#fbb040"/><path d="m400 400c0 17.675781 14.328125 32 32 32s32-14.324219 32-32v-32h-64zm0 0" fill="#acabb1"/><path d="m256 387.679688c17.058594-15.417969 20.695312-40.804688 8.652344-60.390626-12.042969-19.589843-36.339844-27.800781-57.796875-19.542968-21.457031 8.261718-33.972657 30.648437-29.773438 53.253906 4.203125 22.605469 23.925781 39 46.917969 39 11.828125.015625 23.234375-4.378906 32-12.320312zm0 0" fill="#71d9b3"/><path d="m224 400c-11.828125.027344-23.242188-4.367188-32-12.320312v76.320312l32-32 32 32v-76.320312c-8.757812 7.953124-20.167969 12.347656-32 12.320312zm0 0" fill="#ff8a6c"/><g fill="#acabb1"><path d="m352 120h-256c-4.417969 0-8-3.582031-8-8s3.582031-8 8-8h256c4.417969 0 8 3.582031 8 8s-3.582031 8-8 8zm0 0"/><path d="m352 168h-256c-4.417969 0-8-3.582031-8-8s3.582031-8 8-8h256c4.417969 0 8 3.582031 8 8s-3.582031 8-8 8zm0 0"/><path d="m352 216h-256c-4.417969 0-8-3.582031-8-8s3.582031-8 8-8h256c4.417969 0 8 3.582031 8 8s-3.582031 8-8 8zm0 0"/><path d="m352 264h-256c-4.417969 0-8-3.582031-8-8s3.582031-8 8-8h256c4.417969 0 8 3.582031 8 8s-3.582031 8-8 8zm0 0"/><path d="m144 344h-48c-4.417969 0-8-3.582031-8-8s3.582031-8 8-8h48c4.417969 0 8 3.582031 8 8s-3.582031 8-8 8zm0 0"/><path d="m144 368h-16c-4.417969 0-8-3.582031-8-8s3.582031-8 8-8h16c4.417969 0 8 3.582031 8 8s-3.582031 8-8 8zm0 0"/><path d="m352 344h-48c-4.417969 0-8-3.582031-8-8s3.582031-8 8-8h48c4.417969 0 8 3.582031 8 8s-3.582031 8-8 8zm0 0"/><path d="m352 368h-16c-4.417969 0-8-3.582031-8-8s3.582031-8 8-8h16c4.417969 0 8 3.582031 8 8s-3.582031 8-8 8zm0 0"/></g><path d="m112 408h-16c-13.253906 0-24-10.742188-24-24v-16c0-4.417969 3.582031-8 8-8s8 3.582031 8 8v16c0 4.417969 3.582031 8 8 8h16c4.417969 0 8 3.582031 8 8s-3.582031 8-8 8zm0 0" fill="#f1f2f2"/></svg>