<svg height="483pt" viewBox="0 -5 483.77199 483" width="483pt" xmlns="http://www.w3.org/2000/svg"><path d="m84.308594 248.425781h315.058594c38.539062.5 70.941406-28.804687 74.308593-67.199219 1.332031-19.886718-5.640625-39.429687-19.257812-53.984374-13.613281-14.554688-32.652344-22.816407-52.582031-22.816407-12.339844-.011719-24.46875 3.183594-35.199219 9.28125 2.453125-6.371093 3.519531-13.1875 3.128906-20-1.648437-24.238281-20.941406-43.53125-45.175781-45.183593-6.8125-.390626-13.632813.675781-20 3.125-6.058594-29.828126-32.285156-51.261719-62.71875-51.261719-30.4375 0-56.664063 21.433593-62.722656 51.261719-6.367188-2.449219-13.1875-3.515626-20-3.125-24.234376 1.652343-43.527344 20.945312-45.175782 45.183593-.390625 6.8125.675782 13.628907 3.128906 20-10.746093-6.105469-22.902343-9.304687-35.265624-9.28125-19.925782 0-38.964844 8.261719-52.578126 22.816407-13.617187 14.554687-20.589843 34.097656-19.261718 53.984374 3.367187 38.394532 35.773437 67.699219 74.3125 67.199219zm0 0" fill="#71d2f6"/><path d="m329.835938 208.425781c-8.835938 0-16-7.164062-16-16v-48h-176c-17.671876 0-32 14.328125-32 32v256c0 17.671875 14.328124 32 32 32h208c17.675781 0 32-14.328125 32-32v-224zm0 0" fill="#e0e0e2"/><path d="m329.835938 208.425781h48l-64-64v48c0 8.835938 7.164062 16 16 16zm0 0" fill="#c6c5ca"/><g fill="#acabb1"><path d="m265.835938 216.425781h-112c-4.417969 0-8-3.582031-8-8s3.582031-8 8-8h112c4.421874 0 8 3.582031 8 8s-3.578126 8-8 8zm0 0"/><path d="m329.835938 264.425781h-176c-4.417969 0-8-3.582031-8-8s3.582031-8 8-8h176c4.421874 0 8 3.582031 8 8s-3.578126 8-8 8zm0 0"/><path d="m329.835938 312.425781h-176c-4.417969 0-8-3.582031-8-8s3.582031-8 8-8h176c4.421874 0 8 3.582031 8 8s-3.578126 8-8 8zm0 0"/><path d="m329.835938 360.425781h-176c-4.417969 0-8-3.582031-8-8s3.582031-8 8-8h176c4.421874 0 8 3.582031 8 8s-3.578126 8-8 8zm0 0"/><path d="m329.835938 408.425781h-144c-4.417969 0-8-3.582031-8-8s3.582031-8 8-8h144c4.421874 0 8 3.582031 8 8s-3.578126 8-8 8zm0 0"/></g><path d="m481.429688 424.824219c-3.125-3.121094-8.1875-3.121094-11.3125 0l-20.28125 20.289062v-172.6875c0-4.417969-3.578126-8-8-8-4.417969 0-8 3.582031-8 8v172.6875l-20.277344-20.289062c-3.140625-3.03125-8.128906-2.988281-11.214844.097656s-3.128906 8.078125-.097656 11.214844l33.925781 33.9375c.742187.738281 1.621094 1.328125 2.585937 1.726562 1.96875.832031 4.191407.832031 6.160157 0 .964843-.398437 1.84375-.988281 2.582031-1.726562l33.929688-33.9375c3.125-3.121094 3.125-8.1875 0-11.3125zm0 0" fill="#71d9b3"/><path d="m81.429688 300.714844-33.929688-33.9375c-1.5-1.503906-3.535156-2.347656-5.664062-2.347656-2.125 0-4.160157.84375-5.664063 2.347656l-33.925781 33.9375c-3.03125 3.136718-2.988282 8.128906.097656 11.214844 3.085938 3.085937 8.074219 3.128906 11.214844.097656l20.277344-20.289063v172.6875c0 4.417969 3.582031 8 8 8 4.421874 0 8-3.582031 8-8v-172.6875l20.28125 20.289063c2.007812 2.078125 4.984374 2.914062 7.78125 2.179687 2.796874-.730469 4.980468-2.914062 5.710937-5.710937.734375-2.800782-.101563-5.773438-2.179687-7.78125zm0 0" fill="#71d9b3"/><path d="m169.835938 440.425781h-16c-13.253907 0-24-10.746093-24-24v-16c0-4.417969 3.582031-8 8-8 4.421874 0 8 3.582031 8 8v16c0 4.417969 3.582031 8 8 8h16c4.421874 0 8 3.582031 8 8s-3.578126 8-8 8zm0 0" fill="#f1f2f2"/></svg>