<svg height="464pt" viewBox="0 0 464 464.04016" width="464pt" xmlns="http://www.w3.org/2000/svg"><path d="m74.492188 248.039062h315.054687c38.542969.5 70.945313-28.804687 74.3125-67.199218 1.328125-19.882813-5.644531-39.429688-19.257813-53.984375-13.613281-14.554688-32.652343-22.816407-52.582031-22.816407-12.339843-.011718-24.46875 3.1875-35.199219 9.28125 2.453126-6.367187 3.519532-13.1875 3.128907-20-1.648438-24.238281-20.941407-43.53125-45.175781-45.183593-6.8125-.390625-13.632813.675781-20 3.128906-6.058594-29.828125-32.285157-51.265625-62.722657-51.265625-30.433593 0-56.660156 21.4375-62.71875 51.265625-6.367187-2.453125-13.1875-3.519531-20-3.128906-24.234375 1.652343-43.527343 20.945312-45.175781 45.183593-.390625 6.8125.675781 13.632813 3.128906 20-10.75-6.105468-22.902344-9.304687-35.265625-9.28125-19.929687 0-38.964843 8.261719-52.582031 22.816407-13.613281 14.554687-20.585938 34.101562-19.257812 53.984375 3.367187 38.394531 35.773437 67.699218 74.3125 67.199218zm0 0" fill="#71d2f6"/><path d="m320.019531 208.039062c-8.835937 0-16-7.164062-16-16v-48h-176c-17.671875 0-32 14.328126-32 32v256c0 17.675782 14.328125 32 32 32h208c17.675781 0 32-14.324218 32-32v-224zm0 0" fill="#e0e0e2"/><path d="m320.019531 208.039062h48l-64-64v48c0 8.835938 7.164063 16 16 16zm0 0" fill="#c6c5ca"/><g fill="#acabb1"><path d="m256.019531 216.039062h-112c-4.417969 0-8-3.582031-8-8 0-4.417968 3.582031-8 8-8h112c4.417969 0 8 3.582032 8 8 0 4.417969-3.582031 8-8 8zm0 0"/><path d="m320.019531 264.039062h-176c-4.417969 0-8-3.582031-8-8 0-4.417968 3.582031-8 8-8h176c4.417969 0 8 3.582032 8 8 0 4.417969-3.582031 8-8 8zm0 0"/><path d="m320.019531 312.039062h-176c-4.417969 0-8-3.582031-8-8 0-4.417968 3.582031-8 8-8h176c4.417969 0 8 3.582032 8 8 0 4.417969-3.582031 8-8 8zm0 0"/><path d="m320.019531 360.039062h-176c-4.417969 0-8-3.582031-8-8 0-4.417968 3.582031-8 8-8h176c4.417969 0 8 3.582032 8 8 0 4.417969-3.582031 8-8 8zm0 0"/><path d="m320.019531 408.039062h-144c-4.417969 0-8-3.582031-8-8 0-4.417968 3.582031-8 8-8h144c4.417969 0 8 3.582032 8 8 0 4.417969-3.582031 8-8 8zm0 0"/></g><path d="m160.019531 440.039062h-16c-13.253906 0-24-10.742187-24-24v-16c0-4.417968 3.582031-8 8-8s8 3.582032 8 8v16c0 4.417969 3.582031 8 8 8h16c4.417969 0 8 3.582032 8 8 0 4.417969-3.582031 8-8 8zm0 0" fill="#f1f2f2"/></svg>