<svg height="464pt" viewBox="0 0 464 464" width="464pt" xmlns="http://www.w3.org/2000/svg"><path d="m392 80c-8.835938 0-16-7.164062-16-16v-64h-184c-17.671875 0-32 14.328125-32 32v352c0 17.671875 14.328125 32 32 32h240c17.671875 0 32-14.328125 32-32v-304zm0 0" fill="#71d2f6"/><path d="m376 64c0 8.835938 7.164062 16 16 16h72l-88-80zm0 0" fill="#5eafcd"/><path d="m304 192h112v96h-112zm0 0" fill="#2bb673"/><g fill="#e6e7e8"><path d="m408 344h-104c-4.417969 0-8-3.582031-8-8s3.582031-8 8-8h104c4.417969 0 8 3.582031 8 8s-3.582031 8-8 8zm0 0"/><path d="m368 376h-64c-4.417969 0-8-3.582031-8-8s3.582031-8 8-8h64c4.417969 0 8 3.582031 8 8s-3.582031 8-8 8zm0 0"/><path d="m416 168h-120c-4.417969 0-8-3.582031-8-8s3.582031-8 8-8h120c4.417969 0 8 3.582031 8 8s-3.582031 8-8 8zm0 0"/><path d="m416 136h-120c-4.417969 0-8-3.582031-8-8s3.582031-8 8-8h120c4.417969 0 8 3.582031 8 8s-3.582031 8-8 8zm0 0"/></g><path d="m416 392h-16c-4.417969 0-8-3.582031-8-8s3.582031-8 8-8h16c4.417969 0 8-3.582031 8-8v-16c0-4.417969 3.582031-8 8-8s8 3.582031 8 8v16c0 13.253906-10.746094 24-24 24zm0 0" fill="#f1f2f2"/><path d="m304 128v304c0 17.671875-14.328125 32-32 32h-240c-17.671875 0-32-14.328125-32-32v-352c0-17.671875 14.328125-32 32-32h184v64c.027344 8.824219 7.175781 15.972656 16 16zm0 0" fill="#e0e0e2"/><path d="m232 128h72l-88-80v64c.027344 8.824219 7.175781 15.972656 16 16zm0 0" fill="#c6c5ca"/><path d="m48 240h208v96h-208zm0 0" fill="#71d9b3"/><path d="m48 96h80v48h-80zm0 0" fill="#71d9b3"/><path d="m256 216h-208c-4.417969 0-8-3.582031-8-8s3.582031-8 8-8h208c4.417969 0 8 3.582031 8 8s-3.582031 8-8 8zm0 0" fill="#acabb1"/><path d="m256 184h-208c-4.417969 0-8-3.582031-8-8s3.582031-8 8-8h208c4.417969 0 8 3.582031 8 8s-3.582031 8-8 8zm0 0" fill="#acabb1"/><path d="m248 392h-200c-4.417969 0-8-3.582031-8-8s3.582031-8 8-8h200c4.417969 0 8 3.582031 8 8s-3.582031 8-8 8zm0 0" fill="#acabb1"/><path d="m208 424h-160c-4.417969 0-8-3.582031-8-8s3.582031-8 8-8h160c4.417969 0 8 3.582031 8 8s-3.582031 8-8 8zm0 0" fill="#acabb1"/><path d="m256 440h-16c-4.417969 0-8-3.582031-8-8s3.582031-8 8-8h16c4.417969 0 8-3.582031 8-8v-16c0-4.417969 3.582031-8 8-8s8 3.582031 8 8v16c0 13.253906-10.746094 24-24 24zm0 0" fill="#f1f2f2"/></svg>