<svg height="464pt" viewBox="0 0 464 464" width="464pt" xmlns="http://www.w3.org/2000/svg"><path d="m352 96v336c0 17.671875-14.328125 32-32 32h-288c-17.671875 0-32-14.328125-32-32v-400c0-17.671875 14.328125-32 32-32h224v80c.027344 8.824219 7.175781 15.972656 16 16zm0 0" fill="#e0e0e2"/><path d="m272 96h80l-96-96v80c0 8.835938 7.164062 16 16 16zm0 0" fill="#c6c5ca"/><path d="m352 306.878906-50.078125-28.957031c-25.089844-14.480469-54.90625-18.394531-82.882813-10.882813l105.519532 60.960938 27.441406 15.839844 4.640625 2.640625 32.078125 18.558593c5.910156-10.847656 16.464844-18.394531 28.640625-20.480468l-28.71875-16.558594-32-18.480469zm0 0" fill="#ffcd00"/><path d="m388.71875 365.039062c-3.09375 5.84375-4.714844 12.351563-4.71875 18.960938 0 22.089844 17.910156 40 40 40s40-17.910156 40-40-17.910156-40-40-40c-2.226562-.015625-4.449219.171875-6.640625.558594-12.175781 2.085937-22.730469 9.632812-28.640625 20.480468zm35.28125 2.960938c8.835938 0 16 7.164062 16 16s-7.164062 16-16 16-16-7.164062-16-16 7.164062-16 16-16zm0 0" fill="#fbb040"/><path d="m324.558594 328-105.519532 60.960938c27.976563 7.511718 57.792969 3.597656 82.882813-10.882813l50.078125-28.957031 4.640625-2.640625-4.640625-2.640625zm0 0" fill="#ffda44"/><path d="m408.472656 308.855469c-8.410156-3.574219-15.367187-9.878907-19.753906-17.894531l-32.078125 18.558593 32 18.480469 28.71875-16.558594c-3.054687-.511718-6.035156-1.378906-8.886719-2.585937zm0 0" fill="#ffda44"/><path d="m408.472656 308.855469c2.851563 1.207031 5.832032 2.074219 8.886719 2.585937 2.191406.386719 4.414063.574219 6.640625.558594 22.089844 0 40-17.910156 40-40s-17.910156-40-40-40-40 17.910156-40 40c-.074219 16.113281 9.59375 30.671875 24.472656 36.855469zm15.527344-52.855469c8.835938 0 16 7.164062 16 16s-7.164062 16-16 16-16-7.164062-16-16 7.164062-16 16-16zm0 0" fill="#fbb040"/><g fill="#acabb1"><path d="m248 320h16v16h-16zm0 0"/><path d="m216 320h16v16h-16zm0 0"/><path d="m184 320h16v16h-16zm0 0"/><path d="m152 320h16v16h-16zm0 0"/><path d="m120 320h16v16h-16zm0 0"/><path d="m88 320h16v16h-16zm0 0"/><path d="m56 320h16v16h-16zm0 0"/><path d="m24 320h16v16h-16zm0 0"/></g><path d="m32 104c-4.417969 0-8-3.582031-8-8v-48c0-13.253906 10.746094-24 24-24h48c4.417969 0 8 3.582031 8 8s-3.582031 8-8 8h-48c-4.417969 0-8 3.582031-8 8v48c0 4.417969-3.582031 8-8 8zm0 0" fill="#f1f2f2"/></svg>