<svg height="464pt" viewBox="0 0 464 464" width="464pt" xmlns="http://www.w3.org/2000/svg"><path d="m184 304-136-94.640625-48-33.359375v256c0 17.671875 14.328125 32 32 32l121.601562-128zm0 0" fill="#ffcd00"/><path d="m280 304 30.398438 32 121.601562 128c17.671875 0 32-14.328125 32-32v-256l-48 33.359375zm0 0" fill="#ffcd00"/><path d="m48 144h-16c-17.671875 0-32 14.328125-32 32l48 33.359375zm0 0" fill="#ddb200"/><path d="m432 144h-16v65.359375l48-33.359375c0-17.671875-14.328125-32-32-32zm0 0" fill="#ddb200"/><path d="m280 304h-96l-30.398438 32-121.601562 128h400l-121.601562-128zm0 0" fill="#ffda44"/><path d="m368 64c-8.824219-.027344-15.972656-7.175781-16-16v-48h-280c-13.253906 0-24 10.746094-24 24v185.359375l136 94.640625h96l136-94.640625v-145.359375zm0 0" fill="#e0e0e2"/><path d="m368 64h48l-64-64v48c.027344 8.824219 7.175781 15.972656 16 16zm0 0" fill="#c6c5ca"/><g fill="#acabb1"><path d="m304 56h-144c-4.417969 0-8-3.582031-8-8s3.582031-8 8-8h144c4.417969 0 8 3.582031 8 8s-3.582031 8-8 8zm0 0"/><path d="m368 104h-272c-4.417969 0-8-3.582031-8-8s3.582031-8 8-8h272c4.417969 0 8 3.582031 8 8s-3.582031 8-8 8zm0 0"/><path d="m368 152h-272c-4.417969 0-8-3.582031-8-8s3.582031-8 8-8h272c4.417969 0 8 3.582031 8 8s-3.582031 8-8 8zm0 0"/><path d="m368 200h-272c-4.417969 0-8-3.582031-8-8s3.582031-8 8-8h272c4.417969 0 8 3.582031 8 8s-3.582031 8-8 8zm0 0"/><path d="m320 248h-176c-4.417969 0-8-3.582031-8-8s3.582031-8 8-8h176c4.417969 0 8 3.582031 8 8s-3.582031 8-8 8zm0 0"/></g><path d="m80 72c-4.417969 0-8-3.582031-8-8v-16c0-13.253906 10.746094-24 24-24h16c4.417969 0 8 3.582031 8 8s-3.582031 8-8 8h-16c-4.417969 0-8 3.582031-8 8v16c0 4.417969-3.582031 8-8 8zm0 0" fill="#f1f2f2"/></svg>