<svg height="464pt" viewBox="0 0 464 464" width="464pt" xmlns="http://www.w3.org/2000/svg"><path d="m362.214844 463.382812c-15.410156-3.613281-26.28125-17.394531-26.214844-33.222656v1.839844c.023438 15.414062 11.050781 28.617188 26.214844 31.382812zm0 0" fill="#e0e0e2"/><path d="m336 432v-32h-336v32c0 17.671875 14.328125 32 32 32h336c-.648438 0-1.257812-.152344-1.894531-.191406-1.304688-.046875-2.605469-.175782-3.890625-.394532-15.175782-2.769531-26.207032-15.984374-26.214844-31.414062zm0 0" fill="#c6c5ca"/><path d="m80 0c-17.671875 0-32 14.328125-32 32v368h288v30.160156c-.066406 15.828125 10.804688 29.609375 26.214844 33.222656 1.289062.210938 2.585937.339844 3.890625.394532 1.132812.140625 2.273437.21875 3.414062.222656 17.078125-.8125 30.5-14.902344 30.480469-32l-.238281-299.679688.238281-68.320312v-32c-.003906-17.476562 14.019531-31.726562 31.496094-32zm0 0" fill="#e0e0e2"/><path d="m366.105469 463.777344c-1.304688-.054688-2.601563-.183594-3.890625-.394532 1.285156.21875 2.585937.347657 3.890625.394532zm0 0" fill="#e0e0e2"/><path d="m48 399.96875h288v.03125h-288zm0 0" fill="#e0e0e2"/><path d="m432 0c-.167969 0-.335938 0-.503906 0h.503906c-17.65625.0429688-31.957031 14.34375-32 32v32h64v-32c0-17.671875-14.328125-32-32-32zm0 0" fill="#acabb1"/><path d="m400 32c.042969-17.65625 14.34375-31.9570312 32-32h-.503906c-17.476563.273438-31.5 14.523438-31.496094 32zm0 0" fill="#e0e0e2"/><path d="m400 132.558594v-.480469l-.238281.242187zm0 0" fill="#e0e0e2"/><path d="m247.039062 319.039062-16.960937-16.960937zm0 0" fill="#e0e0e2"/><path d="m230.078125 302.078125-.023437-.023437-16.964844 50.914062 50.910156-16.96875zm0 0" fill="#a3a2a9"/><path d="m416.71875 149.359375-16.71875-16.800781-.238281-.238282-169.683594 169.757813 16.960937 16.960937zm0 0" fill="#27aae1"/><path d="m247.039062 319.039062 16.960938 16.960938 169.679688-169.679688-16.960938-16.960937zm0 0" fill="#71d2f6"/><path d="m416.71875 149.359375 16.960938 16.960937 11.359374-11.359374c4.507813-4.496094 7.039063-10.597657 7.039063-16.960938s-2.53125-12.464844-7.039063-16.960938c-9.398437-9.359374-24.597656-9.359374-34 0l-11.039062 11.039063v.480469zm0 0" fill="#c2dff6"/><g fill="#acabb1"><path d="m296 200h-200c-4.417969 0-8-3.582031-8-8s3.582031-8 8-8h200c4.417969 0 8 3.582031 8 8s-3.582031 8-8 8zm0 0"/><path d="m248 248h-152c-4.417969 0-8-3.582031-8-8s3.582031-8 8-8h152c4.417969 0 8 3.582031 8 8s-3.582031 8-8 8zm0 0"/><path d="m200 296h-104c-4.417969 0-8-3.582031-8-8s3.582031-8 8-8h104c4.417969 0 8 3.582031 8 8s-3.582031 8-8 8zm0 0"/><path d="m184 344h-88c-4.417969 0-8-3.582031-8-8s3.582031-8 8-8h88c4.417969 0 8 3.582031 8 8s-3.582031 8-8 8zm0 0"/><path d="m344 152h-248c-4.417969 0-8-3.582031-8-8s3.582031-8 8-8h248c4.417969 0 8 3.582031 8 8s-3.582031 8-8 8zm0 0"/><path d="m352 104h-240c-4.417969 0-8-3.582031-8-8s3.582031-8 8-8h240c4.417969 0 8 3.582031 8 8s-3.582031 8-8 8zm0 0"/><path d="m352 56h-192c-4.417969 0-8-3.582031-8-8s3.582031-8 8-8h192c4.417969 0 8 3.582031 8 8s-3.582031 8-8 8zm0 0"/></g><path d="m80 72c-4.417969 0-8-3.582031-8-8v-16c0-13.253906 10.746094-24 24-24h16c4.417969 0 8 3.582031 8 8s-3.582031 8-8 8h-16c-4.417969 0-8 3.582031-8 8v16c0 4.417969-3.582031 8-8 8zm0 0" fill="#f1f2f2"/></svg>