<svg height="464pt" viewBox="0 0 464 464" width="464pt" xmlns="http://www.w3.org/2000/svg"><g fill="#e0e0e2"><path d="m360 88c-8.835938 0-16-7.164062-16-16v-72h-192c-17.671875 0-32 14.328125-32 32v352c0 17.671875 14.328125 32 32 32h240c17.671875 0 32-14.328125 32-32v-296zm0 0"/><path d="m392 416c17.671875 0 32-14.328125 32-32 0 17.671875-14.328125 32-32 32zm0 0"/><path d="m160 128c0 8.835938 7.164062 16 16 16-8.824219-.027344-15.972656-7.175781-16-16zm0 0"/></g><path d="m392 416h-24c0 26.507812 21.492188 48 48 48s48-21.492188 48-48v-32h-40c0 17.671875-14.328125 32-32 32zm0 0" fill="#ffcd00"/><path d="m368 416v-240c0-17.671875-14.328125-32-32-32h-160c-8.835938 0-16-7.164062-16-16v-16c0-17.671875-14.328125-32-32-32h-96c-17.671875 0-32 14.328125-32 32v304c0 26.507812 21.492188 48 48 48h368c-26.507812 0-48-21.492188-48-48zm0 0" fill="#ffda44"/><path d="m360 88h64l-80-88v72c0 8.835938 7.164062 16 16 16zm0 0" fill="#c6c5ca"/><path d="m304 56h-144c-4.417969 0-8-3.582031-8-8s3.582031-8 8-8h144c4.417969 0 8 3.582031 8 8s-3.582031 8-8 8zm0 0" fill="#acabb1"/><path d="m304 88h-112c-4.417969 0-8-3.582031-8-8s3.582031-8 8-8h112c4.417969 0 8 3.582031 8 8s-3.582031 8-8 8zm0 0" fill="#acabb1"/><path d="m328 120h-120c-4.417969 0-8-3.582031-8-8s3.582031-8 8-8h120c4.417969 0 8 3.582031 8 8s-3.582031 8-8 8zm0 0" fill="#acabb1"/><path d="m112 424h-32c-22.082031-.027344-39.972656-17.917969-40-40v-32c0-4.417969 3.582031-8 8-8s8 3.582031 8 8v32c0 13.253906 10.746094 24 24 24h32c4.417969 0 8 3.582031 8 8s-3.582031 8-8 8zm0 0" fill="#f1f2f2"/></svg>