<svg height="464pt" viewBox="0 0 464 464" width="464pt" xmlns="http://www.w3.org/2000/svg"><path d="m464 232v200c0 17.671875-14.328125 32-32 32h-400c-17.671875 0-32-14.328125-32-32v-200h112c8.824219.027344 15.972656 7.175781 16 16v16c-.023438 2.703125.324219 5.394531 1.039062 8 3.625 14.132812 16.371094 24.011719 30.960938 24h144c14.589844.011719 27.335938-9.867188 30.960938-24 .714843-2.605469 1.0625-5.296875 1.039062-8v-16c.027344-8.824219 7.175781-15.972656 16-16zm0 0" fill="#ffcd00"/><path d="m64 112-64 120h64zm0 0" fill="#acabb1"/><path d="m400 232h64l-64-120zm0 0" fill="#acabb1"/><path d="m296 328h-128c-8.835938 0-16 7.164062-16 16s7.164062 16 16 16h128c8.835938 0 16-7.164062 16-16s-7.164062-16-16-16zm0 0" fill="#acabb1"/><path d="m352 64c-8.824219-.027344-15.972656-7.175781-16-16v-48h-240c-17.671875 0-32 14.328125-32 32v200h48c8.824219.027344 15.972656 7.175781 16 16v16c-.023438 2.703125.324219 5.394531 1.039062 8 3.625 14.132812 16.371094 24.011719 30.960938 24h144c14.589844.011719 27.335938-9.867188 30.960938-24 .714843-2.605469 1.0625-5.296875 1.039062-8v-16c.027344-8.824219 7.175781-15.972656 16-16h48v-168zm0 0" fill="#e0e0e2"/><path d="m352 64h48l-64-64v48c.027344 8.824219 7.175781 15.972656 16 16zm0 0" fill="#c6c5ca"/><g fill="#acabb1"><path d="m288 56h-112c-4.417969 0-8-3.582031-8-8s3.582031-8 8-8h112c4.417969 0 8 3.582031 8 8s-3.582031 8-8 8zm0 0"/><path d="m352 104h-240c-4.417969 0-8-3.582031-8-8s3.582031-8 8-8h240c4.417969 0 8 3.582031 8 8s-3.582031 8-8 8zm0 0"/><path d="m352 152h-240c-4.417969 0-8-3.582031-8-8s3.582031-8 8-8h240c4.417969 0 8 3.582031 8 8s-3.582031 8-8 8zm0 0"/><path d="m352 200h-240c-4.417969 0-8-3.582031-8-8s3.582031-8 8-8h240c4.417969 0 8 3.582031 8 8s-3.582031 8-8 8zm0 0"/><path d="m288 248h-112c-4.417969 0-8-3.582031-8-8s3.582031-8 8-8h112c4.417969 0 8 3.582031 8 8s-3.582031 8-8 8zm0 0"/></g><path d="m96 72c-4.417969 0-8-3.582031-8-8v-16c0-13.253906 10.746094-24 24-24h16c4.417969 0 8 3.582031 8 8s-3.582031 8-8 8h-16c-4.417969 0-8 3.582031-8 8v16c0 4.417969-3.582031 8-8 8zm0 0" fill="#f1f2f2"/><path d="m416 440h-32c-4.417969 0-8-3.582031-8-8s3.582031-8 8-8h32c4.417969 0 8-3.582031 8-8v-32c0-4.417969 3.582031-8 8-8s8 3.582031 8 8v32c0 13.253906-10.746094 24-24 24zm0 0" fill="#f1f2f2"/></svg>