<svg height="464pt" viewBox="-48 0 464 464" width="464pt" xmlns="http://www.w3.org/2000/svg"><path d="m368 96v336c0 17.671875-14.328125 32-32 32h-304c-17.671875 0-32-14.328125-32-32v-400c0-17.671875 14.328125-32 32-32h240v80c.027344 8.824219 7.175781 15.972656 16 16zm0 0" fill="#e0e0e2"/><path d="m288 96h80l-96-96v80c0 8.835938 7.164062 16 16 16zm0 0" fill="#c6c5ca"/><path d="m64 240h240c8.835938 0 16 7.164062 16 16v144c0 8.835938-7.164062 16-16 16h-240c-8.835938 0-16-7.164062-16-16v-144c0-8.835938 7.164062-16 16-16zm0 0" fill="#71d2f6"/><path d="m254.320312 316.640625c-2.707031-5.425781-8.25-8.855469-14.316406-8.855469-6.0625 0-11.609375 3.429688-14.316406 8.855469l-26.246094 52.398437 8.558594 14.960938h54.113281c5.542969 0 10.691407-2.871094 13.609375-7.585938 2.914063-4.71875 3.179688-10.605468.703125-15.566406zm0 0" fill="#86dfbe"/><path d="m157.921875 296.320312c-2.871094-4.972656-8.179687-8.039062-13.921875-8.039062s-11.050781 3.066406-13.921875 8.039062l-36.40625 63.742188c-2.828125 4.953125-2.808594 11.039062.054687 15.96875 2.863282 4.933594 8.136719 7.96875 13.839844 7.96875h100.433594l-8.558594-14.960938zm0 0" fill="#3b8c6f"/><path d="m216 280c0 8.835938-7.164062 16-16 16s-16-7.164062-16-16 7.164062-16 16-16 16 7.164062 16 16zm0 0" fill="#d48975"/><g fill="#acabb1"><path d="m224 56h-112c-4.417969 0-8-3.582031-8-8s3.582031-8 8-8h112c4.417969 0 8 3.582031 8 8s-3.582031 8-8 8zm0 0"/><path d="m224 104h-176c-4.417969 0-8-3.582031-8-8s3.582031-8 8-8h176c4.417969 0 8 3.582031 8 8s-3.582031 8-8 8zm0 0"/><path d="m320 152h-272c-4.417969 0-8-3.582031-8-8s3.582031-8 8-8h272c4.417969 0 8 3.582031 8 8s-3.582031 8-8 8zm0 0"/><path d="m320 200h-272c-4.417969 0-8-3.582031-8-8s3.582031-8 8-8h272c4.417969 0 8 3.582031 8 8s-3.582031 8-8 8zm0 0"/></g><path d="m32 72c-4.417969 0-8-3.582031-8-8v-16c0-13.253906 10.746094-24 24-24h16c4.417969 0 8 3.582031 8 8s-3.582031 8-8 8h-16c-4.417969 0-8 3.582031-8 8v16c0 4.417969-3.582031 8-8 8zm0 0" fill="#f1f2f2"/></svg>