<svg height="476pt" viewBox="-14 0 476 476.06861" width="476pt" xmlns="http://www.w3.org/2000/svg"><path d="m192.035156 66.035156c-8.835937 0-16-7.164062-16-16v-48h-144c-17.675781 0-31.9999998 14.324219-31.9999998 32v256c0 17.671875 14.3242188 32 31.9999998 32h176c17.671875 0 32-14.328125 32-32v-224zm0 0" fill="#71d2f6"/><path d="m192.035156 66.035156h48l-64-64v48c0 8.835938 7.164063 16 16 16zm0 0" fill="#5eafcd"/><path d="m400.035156 210.035156c-8.835937 0-16-7.164062-16-16v-48h-144c-17.675781 0-32 14.324219-32 32v256c0 17.671875 14.324219 32 32 32h176c17.671875 0 32-14.328125 32-32v-224zm0 0" fill="#e0e0e2"/><path d="m400.035156 210.035156h48l-64-64v48c0 8.835938 7.164063 16 16 16zm0 0" fill="#cecdd2"/><g fill="#e6e7e8"><path d="m128.035156 74.035156h-80c-4.417968 0-8-3.582031-8-8 0-4.417968 3.582032-8 8-8h80c4.417969 0 8 3.582032 8 8 0 4.417969-3.582031 8-8 8zm0 0"/><path d="m192.035156 122.035156h-144c-4.417968 0-8-3.582031-8-8 0-4.417968 3.582032-8 8-8h144c4.417969 0 8 3.582032 8 8 0 4.417969-3.582031 8-8 8zm0 0"/><path d="m176.035156 170.035156h-128c-4.417968 0-8-3.582031-8-8 0-4.417968 3.582032-8 8-8h128c4.417969 0 8 3.582032 8 8 0 4.417969-3.582031 8-8 8zm0 0"/><path d="m176.035156 218.035156h-128c-4.417968 0-8-3.582031-8-8 0-4.417968 3.582032-8 8-8h128c4.417969 0 8 3.582032 8 8 0 4.417969-3.582031 8-8 8zm0 0"/><path d="m176.035156 266.035156h-128c-4.417968 0-8-3.582031-8-8 0-4.417968 3.582032-8 8-8h128c4.417969 0 8 3.582032 8 8 0 4.417969-3.582031 8-8 8zm0 0"/></g><path d="m336.035156 218.035156h-80c-4.417968 0-8-3.582031-8-8 0-4.417968 3.582032-8 8-8h80c4.417969 0 8 3.582032 8 8 0 4.417969-3.582031 8-8 8zm0 0" fill="#acabb1"/><path d="m400.035156 266.035156h-144c-4.417968 0-8-3.582031-8-8 0-4.417968 3.582032-8 8-8h144c4.417969 0 8 3.582032 8 8 0 4.417969-3.582031 8-8 8zm0 0" fill="#acabb1"/><path d="m400.035156 314.035156h-144c-4.417968 0-8-3.582031-8-8 0-4.417968 3.582032-8 8-8h144c4.417969 0 8 3.582032 8 8 0 4.417969-3.582031 8-8 8zm0 0" fill="#acabb1"/><path d="m400.035156 362.035156h-144c-4.417968 0-8-3.582031-8-8 0-4.417968 3.582032-8 8-8h144c4.417969 0 8 3.582032 8 8 0 4.417969-3.582031 8-8 8zm0 0" fill="#acabb1"/><path d="m384.035156 410.035156h-128c-4.417968 0-8-3.582031-8-8 0-4.417968 3.582032-8 8-8h128c4.417969 0 8 3.582032 8 8 0 4.417969-3.582031 8-8 8zm0 0" fill="#acabb1"/><path d="m384.035156 34.035156h-76.6875l20.285156-20.28125c2.082032-2.007812 2.914063-4.984375 2.183594-7.78125-.734375-2.796875-2.917968-4.980468-5.714844-5.710937-2.796874-.734375-5.769531.101562-7.777343 2.179687l-33.9375 33.929688c-.738281.738281-1.328125 1.617187-1.726563 2.582031-.835937 1.96875-.835937 4.191406 0 6.160156.398438.96875.988282 1.84375 1.726563 2.585938l33.9375 33.925781c2.007812 2.082031 4.980469 2.914062 7.777343 2.183594 2.796876-.734375 4.980469-2.917969 5.714844-5.714844.730469-2.796875-.101562-5.769531-2.183594-7.78125l-20.285156-20.277344h76.6875c13.253906 0 24 10.746094 24 24v56c0 4.417969 3.582032 8 8 8 4.417969 0 8-3.582031 8-8v-56c-.027344-22.082031-17.921875-39.972656-40-40zm0 0" fill="#71d9b3"/><path d="m167.410156 437.113281c.832032-1.96875.832032-4.191406 0-6.160156-.402344-.964844-.988281-1.84375-1.726562-2.582031l-33.9375-33.929688c-2.007813-2.078125-4.984375-2.914062-7.78125-2.179687-2.796875.730469-4.980469 2.914062-5.710938 5.710937-.734375 2.796875.101563 5.773438 2.179688 7.78125l20.289062 20.28125h-76.6875c-13.253906 0-24-10.746094-24-24v-48c0-4.417968-3.582031-8-8-8-4.417968 0-8 3.582032-8 8v48c.027344 22.078125 17.917969 39.972656 40 40h76.6875l-20.289062 20.277344c-2.078125 2.011719-2.914063 4.984375-2.179688 7.78125.730469 2.796875 2.914063 4.980469 5.710938 5.714844 2.796875.730468 5.773437-.101563 7.78125-2.183594l33.9375-33.925781c.738281-.742188 1.324218-1.617188 1.726562-2.585938zm0 0" fill="#71d9b3"/><path d="m400.035156 442.035156h-16c-4.417968 0-8-3.582031-8-8 0-4.417968 3.582032-8 8-8h16c4.417969 0 8-3.582031 8-8v-16c0-4.417968 3.582032-8 8-8 4.417969 0 8 3.582032 8 8v16c0 13.253906-10.746094 24-24 24zm0 0" fill="#f1f2f2"/></svg>