<svg height="474pt" viewBox="-8 0 474 474.04168" width="474pt" xmlns="http://www.w3.org/2000/svg"><path d="m290.515625 96h-282.496094c-2.527343 0-4.90625 1.195312-6.414062 3.222656-1.511719 2.027344-1.972657 4.652344-1.25 7.074219l41.488281 138.304687c2.03125 6.765626 8.261719 11.398438 15.328125 11.398438h184.195313c7.0625 0 13.292968-4.632812 15.328124-11.398438l41.484376-138.304687c.726562-2.421875.265624-5.046875-1.246094-7.074219-1.507813-2.027344-3.886719-3.222656-6.417969-3.222656zm0 0" fill="#ffda44"/><path d="m285.269531 48c0-8.835938-7.164062-16-16-16h-136l-48-32h-56c-8.835937 0-16 7.164062-16 16v48h272zm0 0" fill="#ffd31c"/><path d="m13.269531 64h272v32h-272zm0 0" fill="#e0e0e2"/><path d="m445.269531 256c-.027343-8.824219-7.175781-15.972656-16-16h-136l-29.359375-19.519531-18.640625-12.480469h-56c-8.824219.027344-15.972656 7.175781-16 16v48h272zm0 0" fill="#ffd31c"/><path d="m173.269531 272h272v32h-272zm0 0" fill="#e6e7e8"/><path d="m450.515625 304h-282.496094c-2.527343 0-4.90625 1.195312-6.414062 3.222656-1.511719 2.027344-1.972657 4.652344-1.25 7.074219l41.488281 138.304687c2.03125 6.765626 8.261719 11.398438 15.328125 11.398438h184.195313c7.0625 0 13.292968-4.632812 15.328124-11.398438l41.484376-138.304687c.726562-2.421875.265624-5.046875-1.246094-7.074219-1.507813-2.027344-3.886719-3.222656-6.417969-3.222656zm0 0" fill="#ffda44"/><path d="m260.507812 440h-31.429687c-3.535156 0-6.652344-2.320312-7.664063-5.703125l-9.28125-30.9375c-1.265624-4.230469 1.136719-8.691406 5.367188-9.960937 4.234375-1.265626 8.691406 1.136718 9.960938 5.371093l7.570312 25.230469h25.476562c4.417969 0 8 3.582031 8 8s-3.582031 8-8 8zm0 0" fill="#f1f2f2"/><path d="m389.269531 48h-44.6875l20.289063-20.28125c2.078125-2.007812 2.910156-4.980469 2.179687-7.777344s-2.917969-4.984375-5.714843-5.714844c-2.796876-.730468-5.769532.101563-7.777344 2.179688l-33.9375 33.929688c-.738282.738281-1.328125 1.617187-1.726563 2.585937-.832031 1.96875-.832031 4.1875 0 6.15625.398438.96875.988281 1.847656 1.726563 2.585937l33.9375 33.929688c2.007812 2.078125 4.980468 2.910156 7.777344 2.179688 2.796874-.730469 4.984374-2.917969 5.714843-5.714844s-.101562-5.769532-2.179687-7.777344l-20.289063-20.28125h44.6875c13.253907 0 24 10.746094 24 24v120c0 4.417969 3.582031 8 8 8s8-3.582031 8-8v-120c-.027343-22.082031-17.917969-39.972656-40-40zm0 0" fill="#71d9b3"/><path d="m156.996094 431.800781c-.019532-.925781-.199219-1.835937-.535156-2.695312-.355469-.808594-.84375-1.550781-1.449219-2.195313-.101563-.117187-.140625-.269531-.253907-.390625l-33.824218-34.046875c-3.113282-3.136718-8.179688-3.152344-11.316406-.035156-3.132813 3.113281-3.152344 8.179688-.035157 11.316406l20.222657 20.359375-60.703126-.167969c-13.253906-.050781-23.960937-10.835937-23.914062-24.089843l.394531-112c0-4.417969-3.582031-8-8-8s-8 3.582031-8 8l-.394531 112c-.046875 22.082031 17.785156 40.035156 39.867188 40.136719l60.671874.167968-20.34375 20.199219c-3.136718 3.113281-3.15625 8.179687-.046874 11.316406 3.113281 3.136719 8.179687 3.15625 11.316406.042969l34.066406-33.832031c.734375-.734375 1.316406-1.609375 1.71875-2.566407.414062-.972656.628906-2.015624.632812-3.074218.007813-.199219-.066406-.308594-.074218-.445313zm0 0" fill="#71d9b3"/><path d="m100.507812 232h-31.429687c-3.535156 0-6.652344-2.320312-7.664063-5.703125l-9.28125-30.9375c-1.265624-4.230469 1.136719-8.691406 5.367188-9.960937 4.234375-1.265626 8.691406 1.136718 9.960938 5.371093l7.570312 25.230469h25.476562c4.417969 0 8 3.582031 8 8s-3.582031 8-8 8zm0 0" fill="#f1f2f2"/></svg>