<svg height="464pt" viewBox="0 0 464 464" width="464pt" xmlns="http://www.w3.org/2000/svg"><path d="m392 416h-24c0 26.507812 21.492188 48 48 48s48-21.492188 48-48v-32h-40c0 17.671875-14.328125 32-32 32zm0 0" fill="#ffcd00"/><path d="m392 112h-256v65.128906c14.105469 3.609375 23.980469 16.308594 24 30.871094v-72h208v144h24zm0 0" fill="#bddbff"/><path d="m360 88c-8.835938 0-16-7.164062-16-16v-72h-208c-17.671875 0-32 14.328125-32 32v352c0 17.671875 14.328125 32 32 32h256c17.671875 0 32-14.328125 32-32v-296zm0 0" fill="#e0e0e2"/><path d="m360 88h64l-80-88v72c0 8.835938 7.164062 16 16 16zm0 0" fill="#c6c5ca"/><path d="m104 40h-32c-17.671875 0-32 14.328125-32 32v104h64zm0 0" fill="#c6c5ca"/><path d="m368 136v136c.035156-17.089844-13.410156-31.164062-30.480469-31.921875l-161.519531-.078125c-8.824219-.027344-15.972656-7.175781-16-16v-88zm0 0" fill="#d1e7f8"/><path d="m296 176c0 8.835938-7.164062 16-16 16s-16-7.164062-16-16 7.164062-16 16-16 16 7.164062 16 16zm0 0" fill="#ff9e85"/><path d="m185.441406 240h87.277344l-40.71875-64zm0 0" fill="#3b8c6f"/><path d="m282.878906 240h53.121094c.507812-.011719 1.015625.011719 1.519531.078125l-25.519531-40.078125zm0 0" fill="#71d9b3"/><path d="m368 416v-144c.035156-17.089844-13.410156-31.164062-30.480469-31.921875-.503906-.066406-1.011719-.089844-1.519531-.078125h-160c-8.824219-.027344-15.972656-7.175781-16-16v-16c0-17.671875-14.328125-32-32-32h-96c-17.671875 0-32 14.328125-32 32v208c0 26.507812 21.492188 48 48 48h368c-26.507812 0-48-21.492188-48-48zm0 0" fill="#ffda44"/><path d="m296 48h-112c-4.417969 0-8-3.582031-8-8s3.582031-8 8-8h112c4.417969 0 8 3.582031 8 8s-3.582031 8-8 8zm0 0" fill="#acabb1"/><path d="m312 80h-176c-4.417969 0-8-3.582031-8-8s3.582031-8 8-8h176c4.417969 0 8 3.582031 8 8s-3.582031 8-8 8zm0 0" fill="#acabb1"/><path d="m104 440h-40c-22.082031-.027344-39.972656-17.917969-40-40v-32c0-4.417969 3.582031-8 8-8s8 3.582031 8 8v32c0 13.253906 10.746094 24 24 24h40c4.417969 0 8 3.582031 8 8s-3.582031 8-8 8zm0 0" fill="#f1f2f2"/></svg>