<svg height="464pt" viewBox="-3 0 464 464" width="464pt" xmlns="http://www.w3.org/2000/svg"><path d="m429.429688 64c0-8.835938-7.164063-16-16-16h-200l-59.738282-44.800781c-2.769531-2.078125-6.136718-3.199219-9.597656-3.199219h-98.664062c-8.835938 0-16 7.164062-16 16v96h400zm0 0" fill="#ffcd00"/><path d="m29.429688 112h400v32h-400zm0 0" fill="#e0e0e2"/><path d="m442.851562 144h-426.847656c-4.664062 0-9.09375 2.03125-12.136718 5.566406-3.039063 3.535156-4.386719 8.222656-3.6875 12.832032l43.203124 288c1.183594 7.824218 7.910157 13.605468 15.820313 13.601562h340.449219c7.910156 0 14.628906-5.78125 15.816406-13.601562l43.199219-288c.699219-4.609376-.644531-9.292969-3.683594-12.828126-3.039063-3.535156-7.46875-5.570312-12.132813-5.570312zm0 0" fill="#ffda44"/><path d="m125.566406 440h-52.617187c-3.960938 0-7.324219-2.898438-7.914063-6.816406l-7.246094-48.34375c-.664062-4.371094 2.34375-8.449219 6.710938-9.113282 4.371094-.660156 8.449219 2.34375 9.113281 6.714844l6.214844 41.558594h45.722656c4.417969 0 8 3.582031 8 8s-3.582031 8-8 8zm0 0" fill="#f1f2f2"/></svg>