<svg height="464pt" viewBox="0 0 464 464" width="464pt" xmlns="http://www.w3.org/2000/svg"><path d="m336 264c0 17.671875-14.328125 32-32 32 17.671875 0 32-14.328125 32-32zm0 0" fill="#e0e0e2"/><path d="m160 296c-17.671875 0-32-14.328125-32-32 0 17.671875 14.328125 32 32 32zm0 0" fill="#e0e0e2"/><path d="m464 232v200c0 17.671875-14.328125 32-32 32h-400c-17.671875 0-32-14.328125-32-32v-200h112c8.824219.027344 15.972656 7.175781 16 16v16c0 17.671875 14.328125 32 32 32h144c17.671875 0 32-14.328125 32-32v-16c.027344-8.824219 7.175781-15.972656 16-16zm0 0" fill="#ffcd00"/><path d="m387.816406 0h-311.632812c-7.183594.0195312-13.472656 4.820312-15.382813 11.742188l-60.800781 220.257812h112c8.824219.027344 15.972656 7.175781 16 16v16c0 17.671875 14.328125 32 32 32h144c17.671875 0 32-14.328125 32-32v-16c.027344-8.824219 7.175781-15.972656 16-16h112l-60.761719-220.257812c-1.914062-6.9375-8.226562-11.742188-15.421875-11.742188zm0 0" fill="#c6c5ca"/><path d="m296 328h-128c-8.835938 0-16 7.164062-16 16s7.164062 16 16 16h128c8.835938 0 16-7.164062 16-16s-7.164062-16-16-16zm0 0" fill="#acabb1"/><path d="m416 440h-32c-4.417969 0-8-3.582031-8-8s3.582031-8 8-8h32c4.417969 0 8-3.582031 8-8v-32c0-4.417969 3.582031-8 8-8s8 3.582031 8 8v32c0 13.253906-10.746094 24-24 24zm0 0" fill="#f1f2f2"/></svg>