<svg height="464pt" viewBox="0 0 464 464" width="464pt" xmlns="http://www.w3.org/2000/svg"><path d="m336 432v-40l-31.679688-24-40.480468 24-32.480469-24-30.960937 24-32.476563-24-31.441406 24-31.441407-24-41.039062 23.601562-.558594.398438-31.921875-24-31.519531 24v40c.0234375 17.664062 14.335938 31.976562 32 32h336c-17.671875 0-32-14.328125-32-32zm0 0" fill="#c6c5ca"/><path d="m431.519531 0c-17.464843.308594-31.472656 14.53125-31.519531 32l-.238281 100.320312.238281 259.679688v40c0 17.671875-14.328125 32-32 32s-32-14.328125-32-32v-40l-31.679688-24-40.480468 24-32.480469-24-30.960937 24-32.476563-24-31.441406 24-31.441407-24-41.039062 23.601562v-359.601562c0-17.671875 14.328125-32 32-32zm0 0" fill="#e0e0e2"/><path d="m432 0c-.167969 0-.335938 0-.503906 0h.503906c-17.65625.0429688-31.957031 14.34375-32 32v48l32 16 32-16v-48c0-17.671875-14.328125-32-32-32zm0 0" fill="#acabb1"/><path d="m416 4.320312c4.859375-2.824218 10.378906-4.31640575 16-4.320312h-.503906c-17.476563.273438-31.5 14.523438-31.496094 32-.019531-11.429688 6.085938-21.992188 16-27.679688zm0 0" fill="#e0e0e2"/><path d="m296 120h-48v-32h-32v32h-24c-17.671875 0-32 14.328125-32 32v32c0 17.671875 14.328125 32 32 32h72c4.417969 0 8 3.582031 8 8v16c0 4.417969-3.582031 8-8 8h-96c-4.417969 0-8 3.582031-8 8v16c0 4.417969 3.582031 8 8 8h48v32h32v-32h24c17.671875 0 32-14.328125 32-32v-32c0-17.671875-14.328125-32-32-32h-72c-4.417969 0-8-3.582031-8-8v-16c0-4.417969 3.582031-8 8-8h96c4.417969 0 8-3.582031 8-8v-16c0-4.417969-3.582031-8-8-8zm0 0" fill="#71d9b3"/><path d="m96 104c-4.417969 0-8-3.582031-8-8v-48c0-13.253906 10.746094-24 24-24h48c4.417969 0 8 3.582031 8 8s-3.582031 8-8 8h-48c-4.417969 0-8 3.582031-8 8v48c0 4.417969-3.582031 8-8 8zm0 0" fill="#f1f2f2"/></svg>