<svg height="464pt" viewBox="-48 0 464 464" width="464pt" xmlns="http://www.w3.org/2000/svg"><path d="m368 96v336c0 17.671875-14.328125 32-32 32h-304c-17.671875 0-32-14.328125-32-32v-400c0-17.671875 14.328125-32 32-32h240v80c.027344 8.824219 7.175781 15.972656 16 16zm0 0" fill="#e0e0e2"/><path d="m272 80c0 8.835938 7.164062 16 16 16h80l-96-96zm0 0" fill="#c6c5ca"/><path d="m80 232h208c8.835938 0 16 7.164062 16 16v152c0 8.835938-7.164062 16-16 16h-208c-8.835938 0-16-7.164062-16-16v-152c0-8.835938 7.164062-16 16-16zm0 0" fill="#ffcd00"/><path d="m128 184c0-17.671875 14.328125-32 32-32h48c17.671875 0 32 14.328125 32 32v48h32v-48c0-35.347656-28.652344-64-64-64h-48c-35.347656 0-64 28.652344-64 64v48h32zm0 0" fill="#acabb1"/><path d="m208 152h-48c-17.671875 0-32 14.328125-32 32v48h112v-48c0-17.671875-14.328125-32-32-32zm0 0" fill="#e0e0e2"/><g fill="#f1f2f2"><path d="m191.855469 264.9375c-15.496094-3.941406-31.519531 4.15625-37.535157 18.96875-6.015624 14.816406-.175781 31.796875 13.679688 39.773438v44.320312c0 8.835938 7.164062 16 16 16s16-7.164062 16-16v-44.320312c12.476562-7.183594 18.625-21.8125 15.015625-35.75-2.859375-11.367188-11.773437-20.214844-23.160156-22.992188zm0 0"/><path d="m32 104c-4.417969 0-8-3.582031-8-8v-48c0-13.253906 10.746094-24 24-24h48c4.417969 0 8 3.582031 8 8s-3.582031 8-8 8h-48c-4.417969 0-8 3.582031-8 8v48c0 4.417969-3.582031 8-8 8zm0 0"/></g></svg>