<svg height="464pt" viewBox="0 0 464 464" width="464pt" xmlns="http://www.w3.org/2000/svg"><path d="m464 232v200c0 17.671875-14.328125 32-32 32h-400c-17.671875 0-32-14.328125-32-32v-200h112c8.824219.027344 15.972656 7.175781 16 16v16c0 17.671875 14.328125 32 32 32h144c17.671875 0 32-14.328125 32-32v-16c.027344-8.824219 7.175781-15.972656 16-16zm0 0" fill="#ffcd00"/><path d="m392.800781 160h-321.601562c-4.582031-.015625-8.953125 1.9375-12 5.359375l-59.199219 66.640625h112c8.824219.027344 15.972656 7.175781 16 16v16c0 17.671875 14.328125 32 32 32h144c17.671875 0 32-14.328125 32-32v-16c.027344-8.824219 7.175781-15.972656 16-16h112l-59.199219-66.640625c-3.046875-3.421875-7.417969-5.375-12-5.359375zm0 0" fill="#c6c5ca"/><path d="m296 328h-128c-8.835938 0-16 7.164062-16 16s7.164062 16 16 16h128c8.835938 0 16-7.164062 16-16s-7.164062-16-16-16zm0 0" fill="#acabb1"/><path d="m288 248v-136h48l-104-112-104 112h48v136zm0 0" fill="#71d9b3"/><path d="m416 440h-32c-4.417969 0-8-3.582031-8-8s3.582031-8 8-8h32c4.417969 0 8-3.582031 8-8v-32c0-4.417969 3.582031-8 8-8s8 3.582031 8 8v32c0 13.253906-10.746094 24-24 24zm0 0" fill="#f1f2f2"/></svg>