<svg height="464pt" viewBox="0 0 464 464" width="464pt" xmlns="http://www.w3.org/2000/svg"><path d="m352 64c-8.824219-.027344-15.972656-7.175781-16-16v-48h-240c-17.671875 0-32 14.328125-32 32v208h336v-176zm0 0" fill="#e0e0e2"/><path d="m352 64h48l-64-64v48c.027344 8.824219 7.175781 15.972656 16 16zm0 0" fill="#c6c5ca"/><path d="m32 240h400c17.671875 0 32 14.328125 32 32v160c0 17.671875-14.328125 32-32 32h-400c-17.671875 0-32-14.328125-32-32v-160c0-17.671875 14.328125-32 32-32zm0 0" fill="#71d2f6"/><path d="m432 288c0 8.835938-7.164062 16-16 16s-16-7.164062-16-16 7.164062-16 16-16 16 7.164062 16 16zm0 0" fill="#2bb673"/><path d="m376 288c0 8.835938-7.164062 16-16 16s-16-7.164062-16-16 7.164062-16 16-16 16 7.164062 16 16zm0 0" fill="#ff8c9e"/><path d="m32 112h32v128h-32zm0 0" fill="#27aae1"/><path d="m400 112h32v128h-32zm0 0" fill="#27aae1"/><g fill="#acabb1"><path d="m288 56h-112c-4.417969 0-8-3.582031-8-8s3.582031-8 8-8h112c4.417969 0 8 3.582031 8 8s-3.582031 8-8 8zm0 0"/><path d="m352 104h-240c-4.417969 0-8-3.582031-8-8s3.582031-8 8-8h240c4.417969 0 8 3.582031 8 8s-3.582031 8-8 8zm0 0"/><path d="m352 152h-240c-4.417969 0-8-3.582031-8-8s3.582031-8 8-8h240c4.417969 0 8 3.582031 8 8s-3.582031 8-8 8zm0 0"/><path d="m352 200h-240c-4.417969 0-8-3.582031-8-8s3.582031-8 8-8h240c4.417969 0 8 3.582031 8 8s-3.582031 8-8 8zm0 0"/></g><path d="m408 432h-352c-13.253906 0-24-10.746094-24-24v-32c0-4.417969 3.582031-8 8-8s8 3.582031 8 8v32c0 4.417969 3.582031 8 8 8h352c4.417969 0 8-3.582031 8-8v-32c0-4.417969 3.582031-8 8-8s8 3.582031 8 8v32c0 13.253906-10.746094 24-24 24zm0 0" fill="#f1f2f2"/><path d="m272 296h-96c-4.417969 0-8-3.582031-8-8s3.582031-8 8-8h96c4.417969 0 8 3.582031 8 8s-3.582031 8-8 8zm0 0" fill="#f1f2f2"/><path d="m96 72c-4.417969 0-8-3.582031-8-8v-16c0-13.253906 10.746094-24 24-24h16c4.417969 0 8 3.582031 8 8s-3.582031 8-8 8h-16c-4.417969 0-8 3.582031-8 8v16c0 4.417969-3.582031 8-8 8zm0 0" fill="#f1f2f2"/></svg>