<svg height="464pt" viewBox="-48 0 464 464" width="464pt" xmlns="http://www.w3.org/2000/svg"><path d="m368 96v336c0 17.671875-14.328125 32-32 32h-304c-17.671875 0-32-14.328125-32-32v-400c0-17.671875 14.328125-32 32-32h240v80c.027344 8.824219 7.175781 15.972656 16 16zm0 0" fill="#e0e0e2"/><path d="m272 80c0 8.835938 7.164062 16 16 16h80l-96-96zm0 0" fill="#c6c5ca"/><path d="m320 280c0 75.109375-60.890625 136-136 136s-136-60.890625-136-136 60.890625-136 136-136 136 60.890625 136 136zm0 0" fill="#71d9b3"/><path d="m196.679688 224-8.96875 8.96875c-2.078126 2.007812-2.914063 4.980469-2.179688 7.78125.730469 2.796875 2.914062 4.980469 5.710938 5.710938 2.796874.734374 5.773437-.101563 7.78125-2.179688l22.625-22.617188c.738281-.738281 1.324218-1.617187 1.726562-2.585937.832031-1.96875.832031-4.1875 0-6.15625-.402344-.96875-.988281-1.847656-1.726562-2.585937l-22.625-22.617188c-3.136719-3.03125-8.128907-2.988281-11.214844.097656-3.085938 3.085938-3.128906 8.078125-.097656 11.214844l8.96875 8.96875h-28.679688c-39.746094.042969-71.957031 32.253906-72 72v32c0 4.417969 3.582031 8 8 8s8-3.582031 8-8v-32c.035156-30.914062 25.085938-55.964844 56-56zm0 0" fill="#fff"/><path d="m264 240c-4.417969 0-8 3.582031-8 8v32c-.035156 30.914062-25.085938 55.964844-56 56h-28.679688l8.96875-8.96875c2.078126-2.007812 2.914063-4.980469 2.179688-7.78125-.730469-2.796875-2.914062-4.980469-5.710938-5.710938-2.796874-.734374-5.773437.101563-7.78125 2.179688l-22.625 22.617188c-.738281.738281-1.324218 1.617187-1.726562 2.585937-.832031 1.96875-.832031 4.1875 0 6.15625.402344.96875.988281 1.847656 1.726562 2.585937l22.625 22.617188c2.007813 2.078125 4.984376 2.914062 7.78125 2.179688 2.796876-.730469 4.980469-2.914063 5.710938-5.710938.734375-2.800781-.101562-5.773438-2.179688-7.78125l-8.96875-8.96875h28.679688c39.746094-.042969 71.957031-32.253906 72-72v-32c0-4.417969-3.582031-8-8-8zm0 0" fill="#fff"/><path d="m32 104c-4.417969 0-8-3.582031-8-8v-48c0-13.253906 10.746094-24 24-24h48c4.417969 0 8 3.582031 8 8s-3.582031 8-8 8h-48c-4.417969 0-8 3.582031-8 8v48c0 4.417969-3.582031 8-8 8zm0 0" fill="#f1f2f2"/></svg>