<svg height="464pt" viewBox="-48 0 464 464" width="464pt" xmlns="http://www.w3.org/2000/svg"><path d="m368 96v336c0 17.671875-14.328125 32-32 32h-304c-17.671875 0-32-14.328125-32-32v-400c0-17.671875 14.328125-32 32-32h240v80c.027344 8.824219 7.175781 15.972656 16 16zm0 0" fill="#e0e0e2"/><path d="m272 80c0 8.835938 7.164062 16 16 16h80l-96-96zm0 0" fill="#c6c5ca"/><path d="m64 152c-8.835938 0-16 7.164062-16 16v232c0 8.835938 7.164062 16 16 16h240c8.835938 0 16-7.164062 16-16v-184l-64-64zm0 0" fill="#71d2f6"/><path d="m96 144h160v80h-160zm0 0" fill="#acabb1"/><path d="m272 288h-176c-8.835938 0-16 7.164062-16 16v112h208v-112c0-8.835938-7.164062-16-16-16zm0 0" fill="#00aeef"/><path d="m208 168h24v32h-24zm0 0" fill="#898890"/><g fill="#f1f2f2"><path d="m256 360h-144c-4.417969 0-8-3.582031-8-8s3.582031-8 8-8h144c4.417969 0 8 3.582031 8 8s-3.582031 8-8 8zm0 0"/><path d="m256 328h-144c-4.417969 0-8-3.582031-8-8s3.582031-8 8-8h144c4.417969 0 8 3.582031 8 8s-3.582031 8-8 8zm0 0"/><path d="m256 392h-144c-4.417969 0-8-3.582031-8-8s3.582031-8 8-8h144c4.417969 0 8 3.582031 8 8s-3.582031 8-8 8zm0 0"/><path d="m32 104c-4.417969 0-8-3.582031-8-8v-48c0-13.253906 10.746094-24 24-24h48c4.417969 0 8 3.582031 8 8s-3.582031 8-8 8h-48c-4.417969 0-8 3.582031-8 8v48c0 4.417969-3.582031 8-8 8zm0 0"/></g></svg>