<svg height="464pt" viewBox="-48 0 464 464" width="464pt" xmlns="http://www.w3.org/2000/svg"><path d="m368 96v336c0 17.671875-14.328125 32-32 32h-304c-17.671875 0-32-14.328125-32-32v-400c0-17.671875 14.328125-32 32-32h240v80c.027344 8.824219 7.175781 15.972656 16 16zm0 0" fill="#e0e0e2"/><path d="m272 80c0 8.835938 7.164062 16 16 16h80l-96-96zm0 0" fill="#c6c5ca"/><path d="m251.921875 166.878906-26.480469 26.480469c-3.046875-1.511719-6.203125-2.796875-9.441406-3.839844v-37.519531h-64v37.519531c-3.238281 1.042969-6.394531 2.328125-9.441406 3.839844l-26.480469-26.480469-45.199219 45.199219 26.480469 26.480469c-1.511719 3.046875-2.796875 6.203125-3.839844 9.441406h-37.519531v64h37.519531c1.042969 3.238281 2.328125 6.394531 3.839844 9.441406l-26.480469 26.480469 45.199219 45.199219 26.480469-26.480469c3.046875 1.511719 6.203125 2.796875 9.441406 3.839844v37.519531h64v-37.519531c3.238281-1.042969 6.394531-2.328125 9.441406-3.839844l26.480469 26.480469 45.199219-45.199219-26.480469-26.480469c1.511719-3.046875 2.796875-6.203125 3.839844-9.441406h37.519531v-64h-37.519531c-1.042969-3.238281-2.328125-6.394531-3.839844-9.441406l26.480469-26.480469zm-67.921875 161.121094c-26.507812 0-48-21.492188-48-48s21.492188-48 48-48 48 21.492188 48 48-21.492188 48-48 48zm0 0" fill="#ffcd00"/><path d="m232 280c0 26.507812-21.492188 48-48 48s-48-21.492188-48-48 21.492188-48 48-48 48 21.492188 48 48zm0 0" fill="#e0e0e2"/><path d="m32 104c-4.417969 0-8-3.582031-8-8v-48c0-13.253906 10.746094-24 24-24h48c4.417969 0 8 3.582031 8 8s-3.582031 8-8 8h-48c-4.417969 0-8 3.582031-8 8v48c0 4.417969-3.582031 8-8 8zm0 0" fill="#f1f2f2"/></svg>