<svg height="464pt" viewBox="-3 0 464 464.00001" width="464pt" xmlns="http://www.w3.org/2000/svg"><path d="m429.453125 64c0-8.835938-7.164063-16-16-16h-200l-59.734375-44.800781c-2.769531-2.078125-6.140625-3.199219-9.601562-3.199219h-98.664063c-8.835937 0-16 7.164062-16 16v96h400zm0 0" fill="#ffcd00"/><path d="m29.453125 112h400v32h-400zm0 0" fill="#e0e0e2"/><path d="m458.734375 162.398438-43.199219 288c-1.191406 7.828124-7.925781 13.613281-15.84375 13.601562h-340.476562c-7.917969.011719-14.652344-5.773438-15.839844-13.601562l-43.203125-288c-.683594-4.609376.671875-9.289063 3.714844-12.820313 3.039062-3.53125 7.464843-5.566406 12.125-5.578125h426.882812c4.660157.011719 9.085938 2.046875 12.125 5.578125 3.042969 3.53125 4.398438 8.210937 3.714844 12.820313zm0 0" fill="#ffda44"/><path d="m181.453125 416h96v-120h48l-96-104-96 104h48zm0 0" fill="#71d9b3"/><path d="m125.589844 440h-52.617188c-3.960937 0-7.324218-2.898438-7.910156-6.816406l-7.25-48.34375c-.660156-4.371094 2.34375-8.449219 6.710938-9.113282 4.371093-.660156 8.449218 2.34375 9.113281 6.714844l6.214843 41.558594h45.722657c4.417969 0 8 3.582031 8 8s-3.582031 8-8 8zm0 0" fill="#f1f2f2"/></svg>